<svg xmlns="http://www.w3.org/2000/svg" width="24" height="24" style=""><rect id="backgroundrect" width="100%" height="100%" x="0" y="0" fill="none" stroke="none"/>
    
<g class="currentLayer" style=""><title>Layer 1</title><path d="M 12 1.5 C 12 1.5 10.5 3.7 10.5 4.5 C 10.5 5.3 11.2 6 12 6 C 12.8 6 13.5 5.3 13.5 4.5 C 13.5 3.7 12 1.5 12 1.5 z M 10 7 L 10 10 L 8.5 10 C 6 10 4 11.8 4 14 C 4 15.5 4.60625 16.8 5.40625 17.5 L 6.8125 22 L 17.3125 22 L 18.59375 17.5 C 19.49375 16.8 20 15.5 20 14 C 20 11.8 18 10 15.5 10 L 14 10 L 14 7 L 10 7 z M 8.5 12 L 15.5 12 C 16.9 12 18 12.9 18 14 C 18 15.3 17.3875 16 17.1875 16 C 16.7875 16 16.49375 15.69375 16.09375 15.09375 C 15.79375 14.59375 15.39375 14 14.59375 14 C 13.89375 14 13.49375 14.5 13.09375 15 C 12.79375 15.4 12.30625 16 11.90625 16 C 11.50625 16 11.2125 15.59375 10.8125 15.09375 C 10.4125 14.59375 10.0125 14 9.3125 14 C 8.6125 14 8.2125 14.5 7.8125 15 C 7.4125 15.6 7.0875 16 6.6875 16 C 6.4875 15.9 6 15.2 6 14 C 6 12.9 7.1 12 8.5 12 z" id="svg_1" class="selected" opacity="0.29"/></g></svg>